<svg xmlns="http://www.w3.org/2000/svg" xmlns:xlink="http://www.w3.org/1999/xlink" xmlns:sketch="http://www.bohemiancoding.com/sketch/ns" viewBox="0 0 165 192.5" version="1.1" x="0px" y="0px"><title>leaf</title><desc>Created with Sketch.</desc><g stroke="none" stroke-width="1" fill="none" fill-rule="evenodd" sketch:type="MSPage"><path d="M84.24384,127.548747 C102.607445,154.009092 131.542064,153.340098 131.542064,153.340098 C131.542064,153.340098 123.933544,138.6041 106.383533,130.405394 C141.178382,133.042453 164.857126,113.644717 164.857126,113.644717 C164.857126,113.644717 140.072823,102.249561 110.075759,111.096913 L110.075759,111.096913 C148.966927,84.0029976 156.69234,43.0213838 156.69234,43.0213838 C156.69234,43.0213838 116.983013,53.8908093 94.3315628,94.3579399 C107.555939,41.477167 82.5437353,0.37890625 82.5437353,0.37890625 C82.5437353,0.37890625 57.1035445,40.0187057 69.3586206,91.5291283 L69.3586206,91.5291283 C46.4856827,53.3814822 8.63708309,43.0213838 8.63708309,43.0213838 C8.63708309,43.0213838 16.4169644,84.2919371 55.665402,111.382429 C25.2447991,102.00893 -0.0628724622,113.644717 -0.0628724622,113.644717 C-0.0628724622,113.644717 24.0794558,133.422224 59.4307459,130.322015 L59.4307459,130.322015 C41.7532365,138.503749 34.0929039,153.340098 34.0929039,153.340098 C34.0929039,153.340098 62.980815,154.008012 81.3466242,127.61279 L77.6883281,153.397792 L89.462067,153.397792 L84.24384,127.548747 Z" fill="#000000" sketch:type="MSShapeGroup"/></g><text x="0" y="169" fill="#000000" font-size="5px" font-weight="bold" font-family="'Helvetica Neue', Helvetica, Arial-Unicode, Arial, Sans-serif">Created by Ezra Keddell</text><text x="0" y="174" fill="#000000" font-size="5px" font-weight="bold" font-family="'Helvetica Neue', Helvetica, Arial-Unicode, Arial, Sans-serif">from the Noun Project</text></svg>
