<svg xmlns="http://www.w3.org/2000/svg" xmlns:xlink="http://www.w3.org/1999/xlink" version="1.1" x="0px" y="0px" viewBox="0 0 100 125" style="enable-background:new 0 0 100 100;" xml:space="preserve"><g><g><path style="" d="M60.326,20.497l-0.354,1.539c-1.091,4.744-5.188,8.059-9.961,8.059    c-4.788,0-8.893-3.314-9.984-8.059l-0.354-1.539h-13.23L8.302,32.329l11.754,16.707c0,0,4.763-3.426,7.396-5.322    c0,6.248,0,36.124,0,36.124h45.095c0,0,0-29.876,0-36.124c2.634,1.896,7.396,5.322,7.396,5.322l11.756-16.707L73.556,20.497    H60.326z M72.376,24.465c0.824,0.537,11.066,7.217,13.711,8.941c-1.556,2.211-5.559,7.9-7.082,10.064    c-2.174-1.564-10.427-7.502-10.427-7.502s0,36.336,0,39.9c-3.413,0-33.745,0-37.157,0c0-3.564,0-39.9,0-39.9    s-8.252,5.938-10.428,7.502c-1.521-2.164-5.525-7.854-7.08-10.064c2.643-1.725,12.886-8.404,13.71-8.941c0.911,0,6.983,0,9.028,0    c1.992,5.711,7.253,9.598,13.359,9.598c6.094,0,11.346-3.887,13.336-9.598C65.394,24.465,71.465,24.465,72.376,24.465z" fill-rule="evenodd" clip-rule="evenodd"/></g></g><text x="0" y="115" fill="#000000" font-size="5px" font-weight="bold" font-family="'Helvetica Neue', Helvetica, Arial-Unicode, Arial, Sans-serif">Created by Ilia Sokolov</text><text x="0" y="120" fill="#000000" font-size="5px" font-weight="bold" font-family="'Helvetica Neue', Helvetica, Arial-Unicode, Arial, Sans-serif">from the Noun Project</text></svg>